<svg width="25" height="25" viewBox="0 0 25 25" fill="none" xmlns="http://www.w3.org/2000/svg">
<g clip-path="url(#clip0_15_796)">
<path d="M17.1859 0C15.8531 0.092187 14.2953 0.945307 13.3875 2.05624C12.5594 3.06404 11.8781 4.56091 12.1438 6.01559C13.6 6.0609 15.1047 5.18747 15.9766 4.05779C16.7922 3.00623 17.4094 1.51874 17.1859 0Z" fill="black"/>
<path d="M22.4533 8.38746C21.1736 6.78278 19.3752 5.85153 17.6768 5.85153C15.4346 5.85153 14.4862 6.92496 12.9284 6.92496C11.3221 6.92496 10.1018 5.85466 8.16276 5.85466C6.25808 5.85466 4.22997 7.01871 2.94404 9.00933C1.13623 11.8124 1.44561 17.0827 4.37528 21.5718C5.42371 23.178 6.8237 24.9842 8.65494 24.9999C10.2846 25.0155 10.744 23.9546 12.9518 23.9436C15.1596 23.9311 15.5783 25.0139 17.2049 24.9967C19.0377 24.9827 20.5142 22.9811 21.5627 21.3749C22.3142 20.2233 22.5939 19.6436 23.1767 18.3436C18.9377 16.7296 18.258 10.7015 22.4533 8.38746Z" fill="black"/>
</g>
<defs>
<clipPath id="clip0_15_796">
<rect width="25" height="25" fill="white" transform="translate(-0.000488281)"/>
</clipPath>
</defs>
</svg>
