<svg width="25" height="24" viewBox="0 0 25 24" fill="none" xmlns="http://www.w3.org/2000/svg">
<g clip-path="url(#clip0_585_1248)">
<path d="M23.18 13.6619L21.28 6.82593C20.7231 4.82327 19.5127 3.06422 17.8413 1.8284C16.1699 0.592587 14.1334 -0.049079 12.0554 0.00540109C9.9775 0.0598812 7.97739 0.807381 6.37305 2.12908C4.7687 3.45078 3.65219 5.27084 3.20098 7.29993L1.72998 13.9149C1.5675 14.6459 1.57125 15.404 1.74097 16.1333C1.9107 16.8625 2.24205 17.5444 2.71056 18.1285C3.17908 18.7126 3.7728 19.184 4.44789 19.5079C5.12298 19.8318 5.86221 20 6.61098 19.9999H7.72498C7.9545 21.1302 8.56771 22.1464 9.46072 22.8763C10.3537 23.6062 11.4716 24.0049 12.625 24.0049C13.7783 24.0049 14.8962 23.6062 15.7892 22.8763C16.6823 22.1464 17.2955 21.1302 17.525 19.9999H18.363C19.1338 20 19.8942 19.8218 20.5847 19.4794C21.2753 19.1369 21.8773 18.6394 22.3438 18.0258C22.8103 17.4122 23.1286 16.699 23.2738 15.942C23.419 15.185 23.3872 14.4046 23.181 13.6619H23.18ZM12.625 21.9999C12.0067 21.9974 11.4044 21.8039 10.9003 21.4458C10.3962 21.0878 10.0151 20.5828 9.80898 19.9999H15.441C15.2349 20.5828 14.8538 21.0878 14.3497 21.4458C13.8456 21.8039 13.2432 21.9974 12.625 21.9999ZM20.751 16.8149C20.4723 17.1846 20.1113 17.4842 19.6966 17.6899C19.2819 17.8956 18.8249 18.0018 18.362 17.9999H6.61098C6.16177 17.9999 5.7183 17.8989 5.31332 17.7045C4.90834 17.5101 4.55219 17.2273 4.27114 16.8768C3.9901 16.5264 3.79134 16.1173 3.68954 15.6798C3.58774 15.2423 3.5855 14.7874 3.68298 14.3489L5.15298 7.73293C5.50733 6.13914 6.38429 4.70954 7.64444 3.67138C8.90459 2.63323 10.4756 2.04611 12.1078 2.00335C13.7399 1.96059 15.3395 2.46465 16.6523 3.4354C17.9651 4.40616 18.9157 5.78788 19.353 7.36093L21.253 14.1969C21.3785 14.6423 21.3985 15.1108 21.3114 15.5653C21.2242 16.0197 21.0324 16.4476 20.751 16.8149Z" fill="#484C52"/>
</g>
<defs>
<clipPath id="clip0_585_1248">
<rect width="24" height="24" fill="white" transform="translate(0.625)"/>
</clipPath>
</defs>
</svg>
