<svg width="24" height="24" viewBox="0 0 24 24" fill="none" xmlns="http://www.w3.org/2000/svg">
<path d="M23.8716 15.5817C23.8688 14.8622 23.6359 14.16 23.2032 13.566C22.7704 12.972 22.1577 12.5134 21.4442 12.2496L23.8333 3.85947C23.8832 3.68078 23.8884 3.4937 23.8485 3.31281C23.8086 3.13192 23.7247 2.96213 23.6033 2.8167C23.4792 2.68042 23.3241 2.572 23.1495 2.4994C22.9748 2.42679 22.785 2.39187 22.594 2.39719H5.09104L4.66944 0.886968C4.59614 0.631561 4.43484 0.406075 4.21069 0.245645C3.98654 0.0852141 3.71211 -0.00114929 3.43018 1.15513e-05H0.875V2.39719H2.44643L5.61486 13.4961C5.68972 13.7576 5.85675 13.9876 6.08874 14.1487C6.32073 14.3097 6.60401 14.3924 6.89244 14.3831H20.0388C20.3777 14.3831 20.7026 14.5094 20.9422 14.7341C21.1818 14.9589 21.3164 15.2638 21.3164 15.5817C21.3164 15.8996 21.1818 16.2044 20.9422 16.4292C20.7026 16.654 20.3777 16.7803 20.0388 16.7803H3.43018C3.09134 16.7803 2.76638 16.9065 2.52679 17.1313C2.28719 17.3561 2.15259 17.661 2.15259 17.9789C2.15259 18.2967 2.28719 18.6016 2.52679 18.8264C2.76638 19.0512 3.09134 19.1774 3.43018 19.1774H4.93773C4.72761 19.7206 4.6601 20.3032 4.7409 20.876C4.82169 21.4488 5.04843 21.9949 5.4019 22.468C5.75538 22.9411 6.22518 23.3274 6.77152 23.5941C7.31787 23.8608 7.92467 24 8.54053 24C9.1564 24 9.7632 23.8608 10.3095 23.5941C10.8559 23.3274 11.3257 22.9411 11.6792 22.468C12.0326 21.9949 12.2594 21.4488 12.3402 20.876C12.421 20.3032 12.3535 19.7206 12.1433 19.1774H15.1584C14.9672 19.672 14.8939 20.1999 14.9438 20.7239C14.9937 21.2479 15.1656 21.7553 15.4472 22.2102C15.7289 22.6651 16.1136 23.0564 16.5741 23.3567C17.0346 23.6569 17.5597 23.8587 18.1123 23.9478C18.665 24.0369 19.2318 24.0111 19.7727 23.8723C20.3136 23.7335 20.8154 23.485 21.2428 23.1444C21.6702 22.8038 22.0127 22.3793 22.2461 21.901C22.4796 21.4227 22.5984 20.9021 22.594 20.376C22.5916 19.7568 22.4154 19.1491 22.083 18.6141C22.6293 18.291 23.0797 17.8435 23.3924 17.3134C23.7051 16.7833 23.8699 16.1876 23.8716 15.5817ZM18.8762 11.9859H7.90174L5.78094 4.79437H20.9331L18.8762 11.9859ZM8.54053 21.5746C8.28785 21.5746 8.04084 21.5043 7.83074 21.3726C7.62065 21.2409 7.45689 21.0537 7.3602 20.8347C7.2635 20.6157 7.2382 20.3747 7.28749 20.1422C7.33679 19.9097 7.45847 19.6961 7.63714 19.5285C7.81582 19.3609 8.04346 19.2467 8.29129 19.2005C8.53912 19.1542 8.796 19.178 9.02945 19.2687C9.2629 19.3594 9.46243 19.513 9.60281 19.7101C9.74319 19.9072 9.81812 20.139 9.81812 20.376C9.81812 20.6939 9.68352 20.9988 9.44393 21.2236C9.20433 21.4483 8.87937 21.5746 8.54053 21.5746ZM18.7612 21.5746C18.5086 21.5746 18.2616 21.5043 18.0515 21.3726C17.8414 21.2409 17.6776 21.0537 17.5809 20.8347C17.4842 20.6157 17.4589 20.3747 17.5082 20.1422C17.5575 19.9097 17.6792 19.6961 17.8579 19.5285C18.0365 19.3609 18.2642 19.2467 18.512 19.2005C18.7598 19.1542 19.0167 19.178 19.2502 19.2687C19.4836 19.3594 19.6831 19.513 19.8235 19.7101C19.9639 19.9072 20.0388 20.139 20.0388 20.376C20.0388 20.6939 19.9042 20.9988 19.6646 21.2236C19.425 21.4483 19.1001 21.5746 18.7612 21.5746Z" fill="#484C52"/>
</svg>
